<?xml version="1.0" encoding="UTF-8"?>
<svg id="Layer_1" xmlns="http://www.w3.org/2000/svg" version="1.1" viewBox="0 0 500 500">
  <!-- Generator: Adobe Illustrator 29.5.1, SVG Export Plug-In . SVG Version: 2.1.0 Build 141)  -->
  <defs>
    <style>
      .st0 {
        fill: #5cc2a7;
      }
    </style>
  </defs>
  <path class="st0" d="M21.04,413.39c2.14,0,3.48.62,4.01,1.87.53,1.25.98,2.05,1.34,2.41,1.07-1.43,2.85-3.13,5.35-5.08,2.49-1.96,4.28-3.66,5.35-5.08,1.07-1.43,1.6-3.57,1.6-6.42v-61.51c-1.07,0-2.06-2.31-2.94-6.95-.89-4.63-1.34-8.2-1.34-10.7,0-1.07.71-2.31,2.14-3.74-2.86-.71-4.28-4.28-4.28-10.7,0-4.99.44-8.2,1.33-9.63.89-1.42,2.14-2.22,3.74-2.41,1.61-.17,2.41-1.33,2.41-3.47,0-2.49-.9-5.62-2.67-9.36-1.79-3.74-2.86-5.97-3.21-6.68,0-4.99.88-8.37,2.67-10.16-.36-1.07-.53-4.81-.53-11.23,0-5.7.8-10.7,2.4-14.98,1.61-4.28,2.41-7.66,2.41-10.16l-4.28,2.68,2.14-8.56c0-.71-.45-1.78-1.34-3.21-.89-1.42-1.33-2.85-1.33-4.28,0-.71.44-1.78,1.33-3.21.89-1.42,1.34-2.49,1.34-3.21-.72,0-1.6-.81-2.67-2.41s-1.61-3.47-1.61-5.61c0-4.28.35-7.66,1.07-10.16.71-2.49,1.07-4.45,1.07-5.88,0-.35-.18-.8-.53-1.34-.36-.53-.9-.8-1.61-.8,1.42,0,2.14-1.42,2.14-4.28l-4.28,2.14-.54-14.44c0-9.98,1.61-15.69,4.81-17.12l-2.14-2.14c0-14.26.27-25.85.81-34.76.53-8.91,1.69-19.07,3.47-30.48,3.56-9.63,5.35-16.22,5.35-19.79,0-2.49-.63-4.72-1.87-6.68-1.25-1.95-1.88-3.65-1.88-5.08,0-1.07.18-2.49.54-4.28.35-1.78,1.07-2.67,2.14-2.67h54.55c2.49,0,4.99.54,7.49,1.61,2.49,1.07,4.28,2.67,5.35,4.81-1.07.72-2.32,1.79-3.74,3.21-1.43,1.43-2.14,2.5-2.14,3.21,0,2.86.98,6.6,2.94,11.23,1.95,4.64,2.94,8.02,2.94,10.16,0,9.99-.36,23.89-1.07,41.72-.72,17.12-1.07,29.95-1.07,38.51,0,7.49.89,16.04,2.68,25.67,1.42,12.13,2.14,20.86,2.14,26.21,0,9.27-1.07,22.82-3.21,40.65-2.5,16.04-3.74,29.77-3.74,41.18s.35,27.28,1.07,48.67c.71,22.82,1.07,40.47,1.07,52.95,0,24.24-6.78,42.79-20.32,55.62-13.55,12.84-30.67,19.25-51.34,19.25h-4.28c-9.99,0-16.76-.53-20.33-1.6-3.57-1.07-6.06-4.01-7.49-8.82-1.43-4.81-2.14-13.29-2.14-25.4l-1.07-10.7c0-5.71,6.59-8.56,19.79-8.56ZM15.7,434.78c1.78-.72,3.83-1.96,6.15-3.74,2.31-1.79,4.36-2.67,6.15-2.67v2.14c3.21-2.14,4.81-5.17,4.81-9.09-2.14,0-5.08.44-8.82,1.34-3.74.88-6.87,1.33-9.36,1.33,0,3.56.35,7.13,1.07,10.7ZM28.27,454.3c2.31-3.04,4.36-4.55,6.15-4.55l2.14,1.61c1.78-4.28,4.63-7.14,8.56-8.56-.36.71-.54,1.61-.54,2.68,0,2.49.88,3.92,2.67,4.28-1.07,1.42-3.21,2.76-6.42,4.01-3.21,1.24-5.35,2.58-6.42,4.01,2.49,0,4.72.27,6.69.8,1.95.54,3.29.98,4.01,1.34,4.28,0,9.53-1.34,15.78-4.01,6.23-2.67,11.67-6.24,16.31-10.7,4.63-4.46,6.95-9.01,6.95-13.64,0-3.93,1.07-5.88,3.21-5.88l2.14.53c1.07-1.79,2.05-4.54,2.94-8.29.89-3.75,2.05-6.51,3.48-8.29-7.14,4.99-14.8,10.25-23,15.78-8.2,5.52-13.91,9.36-17.11,11.5v-2.14c2.14-2.14,4.45-4.28,6.95-6.42,2.49-2.14,4.28-3.57,5.35-4.28,1.42-1.07,5.52-3.83,12.3-8.29,6.77-4.46,10.51-7.41,11.23-8.82h-4.28c-3.21,0-6.07.88-8.56,2.67.35-2.14,1.78-4.1,4.28-5.88,2.49-1.79,5.35-2.67,8.56-2.67.35,0,.71.17,1.07.53s.54.71.54,1.07c3.21-1.07,4.81-3.03,4.81-5.88l-.54-2.14c-1.79,1.42-4.54,2.68-8.29,3.74-3.74,1.07-7.05,1.61-9.89,1.61,0-2.86,2.05-5.35,6.15-7.49,4.09-2.14,7.75-3.21,10.96-3.21,0-3.56-2.32-5.35-6.95-5.35h-4.28l2.14,4.28-6.42-.54c-4.64,0-9.54.62-14.71,1.87-5.17,1.25-9.54,2.94-13.1,5.08-1.79,1.07-3.3,4.45-4.54,10.16-1.25,5.7-2.41,9.27-3.47,10.7,7.13-2.86,11.23-4.28,12.3-4.28-2.5,3.21-8.65,8.29-18.45,15.24-9.81,6.95-16.85,11.14-21.13,12.57v18.72h2.14v2.14c3.21-.72,5.97-2.59,8.29-5.61ZM43.51,170.85c.35,5.17.88,9.36,1.61,12.57l12.3-12.3c1.07.36,5.61-2.85,13.64-9.63,8.02-6.77,12.03-10.7,12.03-11.77h-8.02c.35-1.42,1.51-2.49,3.48-3.21,1.95-.71,4.01-1.07,6.15-1.07,1.07,0,2.14.36,3.21,1.07,1.07.72,1.6,1.43,1.6,2.14,0,3.57-2.14,7.49-6.42,11.77-4.28,4.28-8.21,6.42-11.77,6.42-1.43,0-3.39,1.34-5.88,4.01-2.5,2.67-5.17,4.73-8.02,6.15v2.67c2.49,0,11.77-2.67,27.81-8.02,5.7-2.14,9.27-3.21,10.7-3.21v-35.83c.35-.35.71-.98,1.07-1.87.35-.88.53-1.69.53-2.41,0-1.42-.53-2.85-1.6-4.28-1.79,2.5-7.31,6.6-16.58,12.3-3.57,2.14-6.95,4.37-10.16,6.68-3.21,2.32-5,4.2-5.35,5.62h8.56c-1.79,1.79-4.01,3.47-6.68,5.08-2.68,1.61-5.08,2.41-7.22,2.41-.72,0-1.34-.44-1.87-1.34-.54-.88-.8-1.87-.8-2.94,0,.72-.27,1.79-.8,3.21-.54,1.43-1.16,2.5-1.88,3.21,0-5.7,1.69-10.07,5.08-13.1,3.38-3.02,8.29-6.15,14.71-9.36,6.06-3.21,10.7-6.15,13.91-8.82,3.21-2.68,5.35-6.33,6.42-10.96-5.35,3.57-12.39,6.78-21.13,9.63-8.74,2.86-16.31,4.28-22.73,4.28,0-3.56,2.41-7.57,7.22-12.03,4.81-4.45,10.16-8.91,16.05-13.37,5.88-4.45,10.07-7.75,12.57-9.89v-2.14l-14.44,4.28v-2.14c0-2.14,3.29-3.92,9.89-5.35,6.59-1.42,11.5-2.14,14.71-2.14,0,3.21-2.23,6.87-6.68,10.96-4.46,4.1-10.79,9.36-18.98,15.78-6.42,4.28-10.52,7.67-12.3,10.16,3.56-1.42,7.3-2.76,11.23-4.01,3.92-1.25,7.3-2.58,10.16-4.01v2.14c7.49-2.85,12.84-5.7,16.05-8.56,3.21-2.85,5.16-5.97,5.88-9.36.71-3.38,1.07-8.47,1.07-15.24,0-2.85-1.79-8.56-5.35-17.11-2.86-6.42-4.46-10.87-4.81-13.37-1.79.36-2.67,2.14-2.67,5.35,0,1.79.17,2.86.53,3.21-4.64,5.71-11.59,11.77-20.86,18.18-9.28,7.14-15.87,13.02-19.79,17.65l3.74.54c1.42,0,2.58-.18,3.47-.54.89-.35,1.88-.53,2.94-.53,1.42,0,2.49.18,3.21.53,0,.36-2.67,1.7-8.02,4.01-5.35,2.32-9.09,4.54-11.23,6.68l2.14,2.14c0,11.77-.36,22.29-1.07,31.55-.72,6.42-1.07,11.41-1.07,14.98,0,3.21.17,7.4.53,12.57ZM48.32,362.04c.71,4.28,1.78,7.31,3.21,9.09,2.49-5.7,5.26-10.07,8.29-13.1,3.02-3.02,7.04-6.15,12.03-9.36,6.77-3.92,11.94-8.37,15.51-13.37h-2.14c-2.14,1.07-6.68,2.76-13.64,5.08-6.95,2.32-11.32,3.47-13.1,3.47,0-3.56,4.19-6.59,12.57-9.09,8.37-2.49,16.66-4.45,24.87-5.88v-18.72c-3.21,2.86-7.04,5.62-11.5,8.29-4.46,2.67-8.48,4.01-12.03,4.01.35-.71,1.15-1.87,2.4-3.48,1.25-1.6,2.58-2.4,4.01-2.4l10.7-10.7h-18.72c0-2.14.98-3.56,2.94-4.28,1.96-.71,4.9-1.24,8.83-1.6.71,0,2.4-.18,5.08-.54,2.68-.35,4.55-1.07,5.62-2.14l-.54-6.95c0-6.06,1.07-10.16,3.21-12.3l-8.56,4.28-.54-1.61c0-.35,1.78-2.4,5.35-6.15,3.56-3.74,5.35-9.53,5.35-17.38,0-.35-.18-.71-.53-1.07-.36-.35-.72-.53-1.07-.53-2.14,1.79-5.71,3.74-10.7,5.88-4.64,2.5-8.29,4.81-10.96,6.95s-4.73,4.81-6.15,8.02c3.56,0,7.84-1.07,12.84-3.21,4.99-2.14,8.56-3.21,10.7-3.21v2.14c-1.07.72-2.86,1.6-5.35,2.67-2.5,1.07-4.28,1.61-5.35,1.61l-23.53,10.16-1.6-2.14c-.72,0,3.02-4.09,11.23-12.3,4.28-4.28,6.95-7.13,8.02-8.56,1.78-3.21,5.52-6.42,11.23-9.63,4.28-1.78,7.4-4.01,9.36-6.68,1.95-2.67,2.94-7.75,2.94-15.24h-3.74c-.36-.71-.53-1.61-.53-2.68,0-4.99.98-8.82,2.94-11.5,1.95-2.67,2.94-5.79,2.94-9.36l-1.07-14.98c-.72-8.91-1.25-13.72-1.61-14.44v-2.68c-2.14,0-9.18,4.81-21.12,14.44-11.95,9.63-18.81,15.51-20.59,17.65l1.6.53c2.85,0,4.99-.71,6.42-2.14,0,1.79-.99,3.3-2.94,4.55-1.97,1.25-4.01,2.23-6.15,2.94-2.14.72-4.1,1.6-5.88,2.67v16.58c3.92-2.85,9.98-7.57,18.18-14.17,8.2-6.59,14.26-11.67,18.19-15.24-1.07-.71-2.14-1.24-3.21-1.6,0-4.63,2.85-6.95,8.56-6.95,3.56,0,5.35,1.07,5.35,3.21,0,1.07-5.8,6.24-17.38,15.51-11.59,9.27-18.64,14.62-21.13,16.04v2.68c1.42,0,4.99-1.25,10.7-3.75-2.86,5.35-9.27,9.09-19.25,11.23-2.86,12.48-4.28,30.84-4.28,55.09l.54,14.44c3.21-4.99,5.35-7.84,6.42-8.56,1.07,3.57,3.92,5.35,8.56,5.35,2.14,0,4.28-.35,6.42-1.07-1.43,2.14-4.64,4.19-9.63,6.15-5,1.97-8.21,3.48-9.63,4.55,0,3.93.27,7.85.81,11.77.53,3.93.8,7.31.8,10.16s-.54,5.35-1.61,7.49c.71-.71,1.51-1.24,2.41-1.61.88-.35,1.69-.53,2.41-.53s1.07.53,1.07,1.6c0,.72-1.96,3.04-5.88,6.95,0,2.14.35,5.35,1.07,9.63ZM61.96,184.22c-9.81,3.39-14.71,5.98-14.71,7.75v16.58c1.78-.35,7.57-4.81,17.38-13.37,9.8-8.56,15.24-13.91,16.31-16.04-2.86,0-9.18,1.69-18.99,5.08ZM62.22,79.12c9.27-7.13,16.22-13.18,20.86-18.18-3.21,0-6.51,1.25-9.89,3.74-3.39,2.5-5.97,3.74-7.75,3.74l-.54-2.67c0-.35.98-1.24,2.94-2.67,1.96-1.42,2.94-2.85,2.94-4.28,0-1.78-.45-2.94-1.33-3.48-.9-.53-2.77-.8-5.61-.8,0,2.14-.54,3.66-1.61,4.55-1.07.89-3.21,1.69-6.42,2.4-3.21.72-4.81,2.67-4.81,5.88l-2.14,23,13.37-11.23ZM87.1,360.44c-1.97,1.43-3.3,2.14-4.01,2.14-2.86,1.07-7.31,2.4-13.37,4.01-6.07,1.6-10.88,3.74-14.44,6.42-3.57,2.68-5.35,6.51-5.35,11.5,4.28-1.07,12.3-5.08,24.07-12.03s17.65-11.68,17.65-14.17c-1.07,0-2.59.72-4.54,2.14ZM57.41,257.22c1.78,0,4.45-.71,8.02-2.14,3.56-1.42,5.88-2.14,6.95-2.14v2.68c-2.14,1.43-5.35,2.94-9.63,4.54-4.28,1.6-7.49,2.41-9.63,2.41,0-4.63,2.05-9.27,6.15-13.91,4.09-4.63,8.47-6.95,13.1-6.95v2.67l-14.98,12.84ZM63.56,330.49c-3.04,1.79-6.51,2.67-10.43,2.67,1.42,0,3.75-1.34,6.95-4.01,3.21-2.67,5.88-4.01,8.02-4.01l2.67,1.6c-1.79.72-4.19,1.97-7.22,3.75ZM71.32,360.71c3.56-2.67,7.13-4.81,10.7-6.42,3.56-1.6,7.3-2.4,11.23-2.4v-12.3c-2.14.72-5.53,3.39-10.16,8.02-4.64,6.07-8.74,9.09-12.3,9.09-.72,0-1.33-.27-1.87-.8-.53-.54-.8-.98-.8-1.34-1.07,3.21-2.94,5.71-5.61,7.49-2.67,1.79-4.37,2.86-5.08,3.21l4.81,1.61c2.49-1.42,5.52-3.48,9.09-6.15ZM84.96,369c-3.39,1.79-7.58,4.46-12.57,8.02-6.07,4.64-11.06,7.67-14.98,9.09l11.23-.53c2.49,0,4.63.18,6.42.53,0-1.78,2.76-3.56,8.29-5.35,5.52-1.78,8.82-2.85,9.89-3.21l2.67,2.14v-13.37c-3.93,0-7.58.9-10.96,2.67ZM60.09,413.39c1.78-2.86,3.38-5.08,4.81-6.68,1.42-1.6,3.39-2.94,5.88-4.01,0,3.56-3.57,7.13-10.7,10.7ZM73.19,290.65c-1.25,1.97-2.94,3.66-5.08,5.08,0-5.7,2.31-8.73,6.95-9.09,0,.72-.63,2.06-1.87,4.01ZM76.13,251.87c0-2.85.88-4.45,2.67-4.82l4.28,4.82h-6.95ZM85.22,236.36c-3.57,3.57-6.42,5.53-8.56,5.88,0-1.78.62-3.29,1.88-4.54s2.76-1.87,4.54-1.87l2.14.53ZM82.55,285.56c-1.07.72-2.32,1.07-3.75,1.07,0-2.85,1.78-4.28,5.35-4.28,0,1.43-.54,2.5-1.6,3.21ZM89.5,219.78l2.14,1.61-6.42,6.42-2.14-2.14,6.42-5.88ZM91.91,245.72c-1.96,1.6-3.66,2.59-5.08,2.94,0-.71.88-1.95,2.67-3.74s3.56-2.68,5.35-2.68c0,.72-.99,1.87-2.94,3.48Z"/>
  <path class="st0" d="M491.79,367.66c4.63,5.17,6.95,9.54,6.95,13.1-.36.72-1.16,1.79-2.41,3.21-1.25,1.43-2.06,2.14-2.4,2.14h-63.11c-2.5-2.14-6.68-6.15-12.57-12.03-5.88-5.88-11.5-11.67-16.85-17.38-7.14-7.49-13.37-15.24-18.72-23.26-5.35-8.02-11.95-18.63-19.79-31.82-1.07-1.42-2.06-3.92-2.94-7.49-.9-3.56-1.87-6.06-2.94-7.49-10.35-13.91-27.1-20.86-50.27-20.86-.72,0-1.34.27-1.87.81-.54.53-.8.98-.8,1.33,3.21,30.67,6.33,56.61,9.36,77.82,3.02,21.22,5.08,34.32,6.15,39.31,0,6.42-1.6,9.63-4.81,9.63-5,0-10.16-.53-15.51-1.6-1.79-.36-4.01-.72-6.69-1.07-2.67-.36-5.8-.53-9.36-.53-7.14,0-14.44.53-21.93,1.6-2.5.35-5.97.71-10.43,1.07-4.46.35-8.47.53-12.03.53-2.5,0-3.93-.72-4.28-2.14-.36-3.57-.8-8.1-1.33-13.64-.54-5.52-.8-10.07-.8-13.64-.36-17.46-1.07-37.17-2.14-59.1-1.07-21.93-1.79-37.17-2.14-45.73-2.86-60.61-4.28-105.71-4.28-135.31,0-3.56.71-8.2,2.14-13.9,1.42-6.42,2.14-11.94,2.14-16.58,0-2.49-.27-5.26-.8-8.29-.54-3.02-.8-5.43-.8-7.22,0-2.14.53-3.92,1.6-5.35v-19.26c-2.86-.71-4.81-2.14-5.88-4.28,2.49-3.56,6.95-6.06,13.37-7.49,6.42-1.42,14.79-2.49,25.14-3.21,1.42,0,4.63-.35,9.63-1.07,4.99-.71,7.84-1.61,8.56-2.68,1.07-1.42,4.09-2.49,9.09-3.21,4.99-.71,10.16-1.07,15.51-1.07,7.49,0,16.22,1.25,26.21,3.74,2.85.36,6.06.89,9.63,1.6,3.56.72,7.49,1.25,11.77,1.61,22.1,1.43,40.29,3.83,54.55,7.22,14.26,3.39,26.92,10.61,37.97,21.66,2.14,2.5,6.33,10.43,12.57,23.8,6.23,13.37,9.71,21.66,10.43,24.87,2.14,8.56,3.83,16.67,5.08,24.33,1.24,7.67,1.87,11.68,1.87,12.03,0,14.62-3.39,28.44-10.16,41.45-6.78,13.02-16.23,24.33-28.35,33.96-.36.36-4.64,3.39-12.84,9.09-8.56,5.71-12.83,8.74-12.83,9.09,16.39,21.04,32.62,45.11,48.67,72.2l7.49,12.84c.71,1.07,2.68,4.54,5.88,10.43,3.21,5.88,7.3,11.68,12.3,17.38.71.72,3.38,3.66,8.02,8.82ZM238.82,158.28c4.99-4.99,9.63-9.18,13.91-12.57,4.28-3.39,8.02-5.62,11.23-6.69,1.42-4.28,4.99-8.02,10.7-11.23,4.28-2.85,7.13-5.35,8.56-7.49.71-1.42,1.34-4.28,1.87-8.56.53-4.28,1.87-6.42,4.01-6.42,3.56,0,5.88,2.14,6.95,6.42-.36,1.79-.54,7.49-.54,17.12,0,3.21,1.07,12.66,3.21,28.34,2.14,17.11,3.21,28.53,3.21,34.23,1.07,0,5.08,1.87,12.03,5.61s13.45,5.62,19.52,5.62l20.32.53c13.55,0,25.58-2.49,36.1-7.49,10.51-4.99,15.78-12.65,15.78-23,0-9.27-1.87-21.39-5.61-36.37s-8.11-22.46-13.1-22.46c-4.64,0-7.75-.44-9.36-1.34-1.6-.88-2.94-2.4-4.01-4.54s-3.03-3.74-5.88-4.81c-1.43-.35-4.2-.88-8.29-1.61-4.1-.71-6.87-2.31-8.29-4.81-.36.36-.8,1.16-1.34,2.41-.53,1.25-1.33,1.87-2.4,1.87-2.14,0-3.21-1.42-3.21-4.28-20.68,0-35.75.9-45.19,2.68-9.45,1.79-20.24,6.6-32.36,14.44l-2.68-2.14c1.07-1.07,2.68-2.4,4.82-4.01,2.14-1.6,3.21-2.58,3.21-2.94-1.07-.71-1.6-1.24-1.6-1.6l-31.55,14.98c-1.79.72-2.94,2.86-3.47,6.42-.54,3.57-.81,5.71-.81,6.42,4.63,0,8.2-.98,10.7-2.94,2.49-1.95,5.08-4.81,7.75-8.56,2.67-3.74,4.9-6.33,6.68-7.75l2.67,4.28-14.98,16.58c1.78-.35,3.83-1.78,6.15-4.28,2.31-2.49,4.36-3.92,6.15-4.28v2.67c4.63-6.77,11.77-10.16,21.39-10.16l-.53,2.67-10.7,5.35c-10.34,4.64-18.45,8.65-24.33,12.03-5.88,3.39-8.82,5.97-8.82,7.75.71,7.49,1.42,12.13,2.14,13.91ZM244.17,75.92c-3.93,5.71-5.88,14.09-5.88,25.14h2.67c5.7-12.48,21.21-28.7,46.53-48.67v-2.14c-2.86,0-6.51,2.05-10.96,6.15-4.46,4.11-7.05,6.34-7.75,6.69-.72,0-1.25-.18-1.61-.54-.36-.35-.53-.71-.53-1.07-11.06,3.93-18.54,8.74-22.46,14.44ZM238.82,56.13c0,.36.27,1.16.8,2.4.54,1.25.98,2.23,1.34,2.94,2.49,0,4.63-.8,6.42-2.4,1.78-1.61,3.75-3.83,5.88-6.69,2.14-2.85,3.75-4.28,4.81-4.28-12.83,0-19.25,2.67-19.25,8.02ZM260.21,172.72c0,.36-1.69,2.23-5.08,5.61-3.39,3.39-5.97,5.8-7.75,7.22,3.92-.35,8.37-2.67,13.37-6.95.71-.35,2.58-1.6,5.61-3.74,3.02-2.14,6.5-3.21,10.43-3.21.71,0,2.05-.53,4.01-1.6,1.95-1.07,3.29-2.14,4.01-3.21,0-3.21-.36-8.37-1.07-15.51-.72-7.13-1.07-12.65-1.07-16.58l.54-6.42c-4.64,3.21-12.93,9.28-24.87,18.19-11.95,8.92-17.92,13.91-17.92,14.97,0,.36.27.9.81,1.61.53.72,1.15,1.07,1.87,1.07l4.28-3.74,28.88-14.98h2.14c0,3.93-6.24,9.01-18.72,15.24-12.48,6.24-19.44,9.72-20.86,10.43v16.58c1.42-1.42,4.72-3.83,9.89-7.22,5.16-3.38,8.82-6.5,10.96-9.36l.53,1.6ZM271.44,179.67c-10.7,5.35-18.81,9.89-24.33,13.64-5.53,3.74-8.29,8.29-8.29,13.64,3.21-2.49,8.11-6.06,14.71-10.7,6.59-4.63,10.96-6.95,13.1-6.95v-3.74c1.42-1.07,4.09-2.76,8.02-5.08,3.92-2.31,6.77-3.47,8.56-3.47-1.07,2.14-6.78,7.4-17.12,15.78-10.34,8.38-17.47,13.64-21.39,15.78v2.67c5.35-3.21,12.75-6.86,22.19-10.96,9.44-4.09,15.42-6.86,17.92-8.29h3.21c0-7.84-1.07-14.25-3.21-19.25-1.07.72-5.53,3.03-13.37,6.95ZM243.1,257.22c2.49-3.21,9-9.09,19.52-17.65,10.51-8.56,17.38-13.19,20.59-13.91,3.56,0,6.95-2.31,10.16-6.95,1.78-2.85,3.65-4.99,5.61-6.42,1.95-1.42,4.54-2.14,7.75-2.14l.53-2.14-4.81.54-50.81,27.81-4.28-2.67c2.14-3.21,8.2-7.84,18.19-13.91,8.2-4.99,14.44-9.36,18.72-13.1,4.28-3.75,6.42-7.4,6.42-10.96-1.79,0-4.46,1.16-8.02,3.47-3.57,2.32-5.88,3.48-6.95,3.48-2.5,0-8.74,3.21-18.72,9.63-9.63,5.71-14.98,8.74-16.05,9.09l-1.07,13.9c0,10.35,1.07,17.65,3.21,21.93ZM293.11,53.45c-6.6,5.71-10.08,8.92-10.43,9.63,4.28,0,7.84-1.42,10.7-4.28.35.36.53,1.25.53,2.67,0,1.79-4.01,5.27-12.03,10.43-8.02,5.17-13.1,7.75-15.24,7.75-1.07,3.57-4.81,8.92-11.23,16.04-6.42,7.14-9.99,11.06-10.7,11.77h4.81l13.91-8.56c6.42-4.28,11.77-7.3,16.05-9.09,4.28-1.78,10.51-2.67,18.72-2.67.35,0,2.22-.08,5.61-.27,3.38-.17,21.12-.26,53.22-.26,2.85,0,5.43-.98,7.75-2.94,2.31-1.96,4.9-4.72,7.75-8.29,2.14-2.85,4.45-5.35,6.95-7.49,2.49-2.14,4.99-3.21,7.49-3.21,0-.71-.26-1.42-.8-2.14-.53-.71-1.16-1.07-1.87-1.07-7.14,2.86-14.26,6.42-21.39,10.7-12.13,6.78-20.51,10.16-25.14,10.16-2.14,0-3.57-.88-4.28-2.67,3.21-3.21,6.68-5.97,10.43-8.29,3.74-2.31,6.15-3.83,7.22-4.54,9.98-6.42,16.93-11.94,20.86-16.58-1.79,0-3.75.45-5.88,1.33-2.14.9-3.93,1.34-5.35,1.34l-1.6-.54-25.67,12.84c-2.86,1.43-8.38,4.11-16.58,8.02-8.21,3.93-13.37,5.88-15.51,5.88,0-3.92.89-6.5,2.68-7.75,1.78-1.24,4.45-2.22,8.02-2.94,3.56-.71,5.88-1.78,6.95-3.21.71-1.07,2.22-2.58,4.55-4.54,2.31-1.95,4.28-4.01,5.88-6.15,1.6-2.14,2.4-4.28,2.4-6.42l-13.37,4.81-11.77,3.74v-4.28c2.14-.71,4.72-1.95,7.75-3.74,3.02-1.78,5.26-3.38,6.68-4.81l-2.14.54c-1.43,0-3.39-.44-5.88-1.34-2.5-.88-4.64-1.34-6.42-1.34-2.5,2.14-7.04,6.07-13.64,11.77ZM269.57,49.44c-.9-.88-1.7-1.33-2.41-1.33-2.86,0-6.95,2.4-12.3,7.22-5.35,4.82-8.74,8.82-10.16,12.03,2.49,0,7.84-3.02,16.05-9.09,5.7-4.28,9.09-6.42,10.16-6.42,0-.71-.45-1.51-1.33-2.41ZM251.66,273.27c3.56-2.49,8.37-5.16,14.44-8.02,9.27-4.99,14.98-9.09,17.12-12.3l-27.81,10.7c-1.43,2.14-3.21,3.66-5.35,4.54-2.14.89-3.57,2.06-4.28,3.47-.72,1.43-1.07,5-1.07,10.7,1.07-3.56,3.38-6.59,6.95-9.09ZM247.38,337.45c6.06-3.92,13.55-9.54,22.46-16.85,8.91-7.3,15.33-13.64,19.26-18.99-4.64,0-9.63,1.07-14.98,3.21-5.35,2.14-8.74,3.39-10.16,3.74-5.71,2.86-11.23,4.81-16.58,5.88-1.07,2.5-1.79,4.81-2.14,6.95-.36,2.14-.54,4.46-.54,6.95,0,4.64.88,7.67,2.67,9.09ZM291.77,272.2l-2.67,4.28-12.84,9.09c-8.21,5.71-14.36,10.25-18.45,13.64-4.11,3.39-6.15,6.34-6.15,8.82l37.44-12.3c6.06,0,9.09-1.6,9.09-4.81,0-4.63-1.61-13.72-4.81-27.28l-46,27.28v6.42h2.14c3.56,0,7.04-1.24,10.43-3.74,3.38-2.49,7.4-6.06,12.03-10.7,3.92-3.92,7.04-6.77,9.36-8.56,2.31-1.78,4.72-2.68,7.22-2.68l3.21.54ZM304.33,371.67c-1.6-3.92-2.94-5.88-4.01-5.88-2.5,0-6.6,1.6-12.3,4.81-4.64,3.21-8.38,4.81-11.23,4.81h-21.39c4.99-3.92,12.48-9.09,22.46-15.51,9.98-6.42,17.29-11.05,21.93-13.91-3.93,0-7.58.63-10.96,1.87-3.39,1.25-7.4,3.13-12.03,5.61-4.64,2.5-8.56,4.37-11.77,5.61-3.21,1.25-6.78,1.88-10.7,1.88-.72,0-1.33-.27-1.87-.81s-.8-.98-.8-1.33c2.85-3.56,10.34-8.91,22.46-16.05,8.56-5.35,14.98-9.54,19.26-12.57,4.28-3.02,6.42-5.79,6.42-8.29l-2.14-21.93c-1.43,0-2.14.89-2.14,2.67s-2.4,4.64-7.22,8.56c-4.81,3.93-7.75,6.24-8.82,6.95-8.56,6.42-13.73,10.7-15.51,12.84l10.7-4.28v4.28c2.85-2.49,5.97-4.28,9.36-5.35,3.38-1.07,7.93-2.14,13.64-3.21,0,.72-8.02,4.64-24.07,11.77-16.05,7.13-24.79,10.7-26.21,10.7v39.04c3.56,0,11.5-.08,23.8-.27,12.3-.17,24.15-1.51,35.57-4.01,0-1.42-.8-4.09-2.41-8.02ZM262.62,255.08c2.67-3.21,4.01-6.59,4.01-10.16-1.43,0-3.13,1.07-5.08,3.21-1.97,2.14-3.13,3.21-3.48,3.21l-4.28,8.56c3.21,0,6.15-1.6,8.82-4.81ZM276.53,162.29c-3.04,3.39-7.22,6.87-12.57,10.43v-5.88l17.12-17.12c0,5-1.52,9.19-4.54,12.57ZM344.18,252.94c-2.14,0-4.91.36-8.29,1.07-3.39.72-5.97,1.07-7.75,1.07,0-4.63,2.94-8.73,8.82-12.3,5.88-3.56,13.64-7.49,23.27-11.77,1.42-.71,3.92-1.87,7.49-3.48,3.56-1.6,5.52-2.94,5.88-4.01-1.43-.35-2.14-1.78-2.14-4.28s.71-3.74,2.14-3.74c3.56,0,5.35,1.6,5.35,4.81,2.85,0,6.86-1.69,12.03-5.08,5.16-3.38,8.29-5.43,9.36-6.15,3.92-3.21,9.27-6.77,16.04-10.7-4.28,0-8.65,1.16-13.1,3.47-4.46,2.32-7.94,4.01-10.43,5.08-6.42,2.5-15.69,4.91-27.81,7.22-12.13,2.32-22.11,3.47-29.95,3.47-2.86,0-4.81-.17-5.88-.53-7.14,4.64-14.98,8.74-23.53,12.3-.72.36-4.28,2.68-10.7,6.95-4.28,3.57-9.09,6.24-14.44,8.02v-4.28c6.06-2.49,13.99-6.59,23.8-12.3,9.8-5.7,15.42-9.8,16.85-12.3-.72-1.07-1.96-2.05-3.74-2.94-1.79-.89-3.21-1.34-4.28-1.34-1.43,0-5.88,2.23-13.37,6.68-7.49,4.46-14.26,9.72-20.32,15.78-6.07,6.07-9.09,11.95-9.09,17.65,9.63-1.78,19.43-4.28,29.41-7.49,9.98-3.21,16.39-5.7,19.25-7.49l29.42-12.84c.35-.71,2.94-1.78,7.75-3.21,4.81-1.42,8.64-2.49,11.5-3.21l.53,2.14c0,2.5-4.46,5.71-13.37,9.63-8.92,3.93-22.29,9.09-40.11,15.51-14.26,5-24.25,8.74-29.95,11.23-.72.36-2.23,1.69-4.54,4.01-2.32,2.32-4.2,4.37-5.61,6.15,3.92,0,7.84-1.15,11.77-3.47,3.92-2.31,7.13-4.01,9.63-5.08,9.27.72,18.36,1.34,27.28,1.87,8.91.54,15.15.8,18.72.8l2.14-6.95ZM272.51,46.5c0,.36.26.72.8,1.07.53.36.98.54,1.34.54,6.06,0,9.44-1.42,10.16-4.28l-12.3,2.67ZM284.81,212.83l-12.3,6.42v2.14l12.3-5.88v-2.68ZM299.79,352.42l-27.28,17.12c6.77,0,13.55-1.34,20.32-4.01,6.77-2.67,10.16-7.04,10.16-13.1h-3.21ZM297.12,333.17c-2.14,0-5,1.6-8.56,4.81-3.57,3.21-6.06,5.88-7.49,8.02,2.49-.71,5.43-1.69,8.82-2.94,3.38-1.25,7.04-1.87,10.96-1.87,0-5.35-1.25-8.02-3.74-8.02ZM347.12,48.11c-2.67.36-5,1.07-6.95,2.14-1.96,1.07-2.94,2.67-2.94,4.81l.53,1.6c2.85-1.07,6.15-2.49,9.89-4.28,3.75-1.78,5.62-2.85,5.62-3.21-.72-.71-1.07-1.25-1.07-1.61-.72,0-2.41.18-5.08.54ZM368.51,250c6.95-4.81,11.5-7.93,13.64-9.36-3.57,0-10.16,1.79-19.79,5.35-9.63,3.57-14.44,5.71-14.44,6.42s.98,1.7,2.94,2.94c1.95,1.25,3.29,1.87,4.01,1.87,2.14,0,6.68-2.4,13.64-7.22ZM352.74,242.24l3.21.54c2.14,0,3.56-.27,4.28-.8.71-.54,1.07-1.87,1.07-4.01l-8.56,4.28ZM403.01,230.48c13.19-4.99,24.33-11.5,33.43-19.52s13.64-15.95,13.64-23.8c-5.35,3.57-11.5,7.14-18.45,10.7-6.95,3.57-11.86,6.25-14.71,8.02-8.21,4.64-16.76,9.54-25.67,14.71-8.92,5.18-17.47,10.96-25.67,17.38,11.77,0,24.24-2.49,37.44-7.49ZM371.46,261.76c-2.86,1.61-4.81,2.94-5.88,4.01v4.28h3.74l11.23-10.16-2.67-.53c-1.43,0-3.57.8-6.42,2.4ZM368.25,286.37c1.42,3.04,3.21,5.27,5.35,6.69,1.07-.71,4.19-3.12,9.36-7.22,5.16-4.09,9.18-6.68,12.03-7.75,0,2.14-.45,3.74-1.33,4.81-.9,1.07-2.41,2.32-4.55,3.74-2.14,1.43-3.74,2.86-4.81,4.28,4.28,0,9.63-1.07,16.05-3.21,7.13-2.14,12.48-3.21,16.04-3.21l4.28.54,1.6,5.88-14.44,14.98v2.14c3.92-.71,8.56-2.22,13.91-4.54,5.35-2.31,9.27-4.72,11.77-7.22,0-1.42-3.13-5.26-9.36-11.5-6.25-6.23-10.43-10.43-12.57-12.57-1.43,0-3.47,1.25-6.15,3.74-2.68,2.5-4.73,4.1-6.15,4.81,0-.71-.36-1.6-1.07-2.67,0-.35,1.6-1.95,4.81-4.81,3.21-2.85,4.99-4.99,5.35-6.42l-2.68-.53c-3.21,0-6.6.89-10.16,2.67-3.57,1.79-5.88,2.86-6.95,3.21-.72.36-2.68,1.43-5.88,3.21-3.21,1.79-6.24,2.86-9.09,3.21,0-2.49-.54-3.74-1.6-3.74s-3.21,1.97-6.42,5.88c.35.72,1.24,2.59,2.67,5.61ZM413.97,59.87c-2.67-.71-5.08-1.07-7.22-1.07-3.57,0-11.06,4.2-22.46,12.57-11.41,8.38-17.12,13.64-17.12,15.78,3.92,0,11.94-3.38,24.07-10.16,12.84-7.13,21.74-11.04,26.74-11.77v-2.14c0-1.42-1.34-2.49-4.01-3.21ZM375.74,55.32c-2.5,3.39-4.1,5.44-4.81,6.15l1.07,1.61c1.07-.71,3.83-2.14,8.29-4.28,4.45-2.14,6.68-4.09,6.68-5.88-1.79,0-3.93-.88-6.42-2.67-.72,0-2.32,1.69-4.81,5.08ZM401.14,90.89c3.74-3.21,7.4-6.59,10.96-10.16,5.7-5.7,9.8-9.44,12.3-11.23-3.57,0-13.02,3.21-28.34,9.63-15.33,6.42-23,10.88-23,13.37,0,3.57,3.03,5.71,9.09,6.42,1.42,0,3.29-.88,5.62-2.67,2.31-1.78,4.01-3.02,5.08-3.74v3.21c1.78,0,4.55-1.6,8.29-4.81ZM401.94,326.75c3.56-3.92,6.23-5.88,8.02-5.88.35,0,.98.18,1.87.54.88.36,1.51.72,1.87,1.07-.72,2.14-2.67,3.57-5.88,4.28,0,.36.27.9.8,1.61.54.72.98,1.07,1.34,1.07,2.14,0,7.93-2.05,17.38-6.15,9.44-4.09,14.17-6.68,14.17-7.75-.36-1.07-.99-2.49-1.87-4.28-.9-1.78-1.7-3.56-2.41-5.35l-16.58,12.3h-6.95c0-2.14,2.58-4.36,7.75-6.68,5.16-2.31,8.29-4.19,9.36-5.61l-3.21-.54c-4.28,0-9.99,1.79-17.12,5.35-6.42,3.93-12.48,5.88-18.18,5.88-2.14,0-3.39-.71-3.74-2.14l10.7-10.7c4.99-.35,11.23-5.35,18.72-14.98-6.42,0-13.55,1.96-21.39,5.88-1.43.36-4.01,1.25-7.76,2.67-3.74,1.43-7.4,2.14-10.96,2.14v-3.74l-4.28,1.6c1.42,2.5,4.09,6.87,8.02,13.1,3.92,6.24,7.66,12.57,11.23,18.99v3.21c2.49,0,5.52-1.95,9.09-5.88ZM397.13,247.06l-2.14-4.81c-9.99,3.57-16.23,7.14-18.72,10.7l20.86-5.88ZM389.1,260.7c-3.93,2.32-6.78,4.73-8.56,7.22l2.67.54c1.42,0,4.81-1.07,10.16-3.21,5.35-2.14,8.02-3.56,8.02-4.28s-.27-1.51-.81-2.4c-.53-.88-.98-1.34-1.33-1.34-2.86,0-6.24,1.16-10.16,3.48ZM435.1,76.18c-1.79-1.24-3.21-2.05-4.28-2.4-2.86,0-12.3,6.24-28.34,18.72-1.79,1.43-3.66,2.76-5.62,4.01-1.96,1.25-4.01,2.76-6.15,4.54v2.67c3.56,0,7.49-.8,11.77-2.4,4.28-1.61,8.2-3.48,11.77-5.62,9.27-5.35,16.75-8.02,22.46-8.02,0-1.07.44-2.49,1.33-4.28.89-1.78,1.34-3.02,1.34-3.74-1.07-1.07-2.5-2.22-4.28-3.48ZM412.1,350.28c1.42-4.99,5.97-10.43,13.64-16.31,7.66-5.88,14.35-9.71,20.06-11.5,0-.35-.27-.71-.81-1.07-.53-.35-.99-.54-1.33-.54,0,.36-8.02,3.57-24.07,9.63-11.06,3.57-17.11,5.88-18.18,6.95.71,3.57,4.28,7.85,10.7,12.83ZM429.22,102.66c3.92-3.92,8.02-7.3,12.3-10.16-.36-.35-1.25-.54-2.67-.54-3.57,0-7.94,1.16-13.1,3.48-5.17,2.32-9.89,4.73-14.17,7.22-4.28,2.5-6.95,4.11-8.02,4.81,0,2.86,2.14,5.71,6.42,8.56,5.7-2.49,12.12-6.95,19.25-13.37ZM431.09,130.47c8.73-6.42,15.06-11.94,18.99-16.58-2.14.36-6.6,1.52-13.37,3.47-6.78,1.97-12.13,3.66-16.05,5.08-3.93,1.07-6.42,2.94-7.49,5.61-1.07,2.68-1.61,6.69-1.61,12.03,4.28,0,10.78-3.21,19.52-9.63ZM415.85,156.67c0,5.35,1.07,8.02,3.21,8.02,4.99,0,12.48-4.63,22.46-13.91.71-.71,2.94-2.58,6.68-5.61,3.74-3.02,7.04-5.08,9.89-6.15v-2.14c-3.93,1.79-9.18,3.57-15.78,5.35-6.6,1.79-11.15,3.03-13.64,3.74v3.74l-12.3,4.28-.53,2.67ZM416.38,183.95c1.07,0,5.26-1.51,12.57-4.55,7.3-3.02,12.21-5.26,14.71-6.68l-2.14-1.6-25.14,10.16v2.68ZM424.4,360.98c2.49,0,4.45-1.25,5.88-3.75,1.42-2.49,2.76-5.35,4.01-8.56,1.25-3.21,2.22-5.52,2.94-6.95.71-.71,3.38-2.05,8.02-4.01,4.63-1.95,6.95-3.47,6.95-4.54s-.63-2.41-1.87-4.01c-1.25-1.6-2.41-2.41-3.48-2.41-3.21,0-7.58,2.59-13.1,7.75-5.53,5.18-9.89,9.72-13.1,13.64,2.14-.35,4.36-1.34,6.68-2.94,2.31-1.61,4.19-2.76,5.62-3.48.35.36.53,1.07.53,2.14,0,2.5-2.14,4.81-6.42,6.95-4.28,2.14-7.85,3.39-10.7,3.74,2.49,4.28,5.16,6.42,8.02,6.42ZM430.55,106.93c-6.6,5-9.89,8.74-9.89,11.23,3.21-2.14,8.56-3.92,16.05-5.35,7.49-1.42,12.65-3.21,15.51-5.35-1.07-1.07-2.41-2.58-4.01-4.54-1.6-1.95-2.77-3.29-3.47-4.01-2.86.36-7.58,3.03-14.17,8.02ZM439.65,130.2c-6.24,3.39-12.03,6.34-17.38,8.82l-1.6,4.28c2.14,0,5.52-.53,10.16-1.6,4.63-1.07,8.2-2.68,10.7-4.81v2.14c.35,0,3.21-.8,8.56-2.4,5.35-1.61,8.02-2.94,8.02-4.01s-.53-2.76-1.6-5.08c-1.07-2.31-2.32-4.01-3.75-5.08-2.5,1.79-6.87,4.37-13.1,7.75ZM439.91,158.81l-19.25,12.3v2.14c1.42,0,5.7-1.42,12.84-4.28,8.91-3.21,13.72-4.81,14.44-4.81s1.87.26,3.48.8c1.6.53,3.12.8,4.54.8,0,3.57-2.32,6.87-6.95,9.89-4.64,3.03-9.01,5.35-13.1,6.95-4.11,1.6-6.51,2.59-7.22,2.94v2.14c10.7-4.28,18.72-6.42,24.07-6.42,2.49,0,4.28-3.02,5.35-9.09,1.07-6.06,1.6-12.65,1.6-19.79l-.53-7.49c-2.14,2.5-8.56,7.14-19.26,13.91ZM437.24,373.28c4.63-2.14,9.63-5.16,14.98-9.09,5.35-3.92,8.73-7.84,10.16-11.77l-33.69,14.44c2.14,3.21,4.99,5.35,8.56,6.42ZM435.1,356.7v2.14l10.7-3.74c9.97-3.56,14.97-5.88,14.97-6.95l-4.28-8.56c-5,6.07-12.13,11.77-21.4,17.12ZM469.06,377.29c7.3-1.24,10.96-2.94,10.96-5.08-.36-1.07-1.16-2.22-2.41-3.47-1.25-1.25-2.06-1.87-2.4-1.87-2.14,0-6.87,1.16-14.17,3.47-7.31,2.32-11.68,4.01-13.1,5.08l4.28,3.74c3.92,0,9.54-.62,16.85-1.87Z"/>
</svg>